<svg width="128" height="128" viewBox="0 0 128 128" fill="none" xmlns="http://www.w3.org/2000/svg">
  <defs>
    <linearGradient id="stratumPrimary" x1="18" y1="10" x2="104" y2="112" gradientUnits="userSpaceOnUse">
      <stop offset="0" stop-color="#A98CFF"/>
      <stop offset="0.45" stop-color="#6D2DFF"/>
      <stop offset="1" stop-color="#4E00FF"/>
    </linearGradient>
    <linearGradient id="stratumShadow" x1="30" y1="28" x2="88" y2="102" gradientUnits="userSpaceOnUse">
      <stop offset="0" stop-color="#B29AFF" stop-opacity="0.95"/>
      <stop offset="1" stop-color="#4E00FF" stop-opacity="0.95"/>
    </linearGradient>
  </defs>
  <path d="M25.8 11.4L99.7 46.1C105.8 48.9 106.3 57.4 100.6 61L55 89.6C50.5 92.4 44.8 92.6 40.1 90.1L10.8 74.4C4.79 71.18 4.59 62.61 10.44 59.12L67.5 25.1C72.3 22.2 78.3 22 83.3 24.5L25.8 11.4Z" fill="url(#stratumShadow)" opacity="0.88"/>
  <path d="M24.9 31.3L97.7 66C103.8 68.9 104.2 77.3 98.5 80.8L61.5 103.8C55.8 107.4 48.5 107.5 42.7 104.2L14.2 88.4C8.33 85.13 8.14 76.74 13.86 73.2L69.8 38.6C74.8 35.5 81.1 35.4 86.2 38.3L24.9 31.3Z" fill="url(#stratumPrimary)"/>
  <path d="M34.8 17.2L104.7 50.4C110.7 53.2 111.1 61.4 105.5 65L67.3 88.8C61.6 92.4 54.3 92.5 48.4 89.4L23.3 75.9C17.3 72.7 16.9 64.3 22.7 60.6L62.5 35.5C67.7 32.3 74.2 32.1 79.6 34.9L34.8 17.2Z" fill="url(#stratumShadow)"/>
  <path d="M33 15.1L94.9 44.5C101 47.4 101.4 55.7 95.7 59.2L57 83.2C51.2 86.8 43.8 86.8 38.1 83.3L10.5 66.4C4.77 62.9 5.15 54.5 11.17 51.6L65.5 25.2C70.1 22.9 75.6 22.9 80.2 25.2L33 15.1Z" fill="url(#stratumPrimary)"/>
</svg>
