<svg width="788" height="280" viewBox="0 0 788 280" fill="none" xmlns="http://www.w3.org/2000/svg">
  <defs>
    <linearGradient id="primaryLight" x1="22" y1="12" x2="164" y2="180" gradientUnits="userSpaceOnUse">
      <stop offset="0" stop-color="#A98CFF"/>
      <stop offset="0.45" stop-color="#6D2DFF"/>
      <stop offset="1" stop-color="#4E00FF"/>
    </linearGradient>
  </defs>
  <g transform="translate(0 14)">
    <path d="M32 26L128 72C136 75.8 136.6 86.8 129.2 91.6L80 122C73.5 126 65.5 126.2 58.8 122.8L21.7 104C13.9 100.1 13.6 89 21 84.7L93.1 42.5C100 38.4 108.6 38.2 115.7 41.8L32 26Z" fill="url(#primaryLight)" opacity="0.84"/>
    <path d="M32 72L128 118C136 121.8 136.6 132.8 129.2 137.6L80 168C73.5 172 65.5 172.2 58.8 168.8L21.7 150C13.9 146.1 13.6 135 21 130.7L93.1 88.5C100 84.4 108.6 84.2 115.7 87.8L32 72Z" fill="url(#primaryLight)" opacity="0.92"/>
    <path d="M32 118L128 164C136 167.8 136.6 178.8 129.2 183.6L80 214C73.5 218 65.5 218.2 58.8 214.8L21.7 196C13.9 192.1 13.6 181 21 176.7L93.1 134.5C100 130.4 108.6 130.2 115.7 133.8L32 118Z" fill="url(#primaryLight)"/>
  </g>
  <text x="180" y="118" fill="#141414" font-family="Rethink Sans, Arial, sans-serif" font-size="122" font-weight="700" letter-spacing="-6">Stratum</text>
  <text x="620" y="118" fill="#4E00FF" font-family="Rethink Sans, Arial, sans-serif" font-size="122" font-weight="700" letter-spacing="-6">3</text>
  <text x="322" y="214" fill="#8A8497" font-family="Rethink Sans, Arial, sans-serif" font-size="70" font-weight="500" letter-spacing="16">VENTURES</text>
</svg>
